<?xml version="1.0" encoding="UTF-8" standalone="no"?>
<!DOCTYPE svg PUBLIC "-//W3C//DTD SVG 1.1//EN" "http://www.w3.org/Graphics/SVG/1.1/DTD/svg11.dtd">
<svg width="100%" height="100%" viewBox="0 0 256 256" version="1.1" xmlns="http://www.w3.org/2000/svg" xmlns:xlink="http://www.w3.org/1999/xlink" xml:space="preserve" xmlns:serif="http://www.serif.com/" style="fill-rule:evenodd;clip-rule:evenodd;stroke-linejoin:round;stroke-miterlimit:2;">
    <g transform="matrix(0.964824,0,0,0.964824,-28.9408,-21.0472)">
        <path d="M163.092,21.815L162.663,21.815L162.234,21.815C135.109,21.901 109.888,30.146 88.893,44.227C88.831,44.266 88.77,44.307 88.71,44.349C81.073,49.49 74.001,55.403 67.604,61.975C67.557,62.022 67.511,62.069 67.466,62.117C50.226,79.883 37.906,102.455 32.721,127.623C32.715,127.65 32.71,127.677 32.704,127.704C30.929,136.348 29.996,145.307 29.996,154.481C29.996,192.798 46.275,227.342 72.292,251.573C72.341,251.62 72.391,251.667 72.442,251.713C79.539,258.303 87.363,264.129 95.776,269.054C95.83,269.087 95.884,269.118 95.938,269.149C104.96,274.414 114.656,278.644 124.865,281.677C125.44,281.989 126.087,282.183 126.775,282.228C138.194,285.434 150.23,287.148 162.663,287.148C175.096,287.148 187.131,285.434 198.55,282.228C199.238,282.183 199.885,281.989 200.46,281.677C210.667,278.644 220.364,274.414 229.387,269.149C229.441,269.118 229.496,269.087 229.549,269.054C237.96,264.131 245.783,258.305 252.883,251.713C252.935,251.667 252.985,251.62 253.034,251.573C279.05,227.342 295.329,192.798 295.329,154.481C295.329,145.307 294.396,136.348 292.621,127.704C292.615,127.677 292.61,127.65 292.604,127.623C287.422,102.458 275.102,79.883 257.859,62.117C257.814,62.069 257.768,62.022 257.721,61.975C251.326,55.404 244.252,49.49 236.615,44.349C236.555,44.307 236.494,44.266 236.433,44.227C215.445,30.15 190.222,21.903 163.092,21.815ZM156.722,277.674L162.663,230.926L168.604,277.674C166.641,277.767 164.657,277.815 162.663,277.815C160.668,277.815 158.685,277.767 156.722,277.674ZM140.394,90.455C139.555,90.903 138.601,91.082 137.667,90.977L100.141,98.152C99.508,98.426 98.827,98.553 98.15,98.533L48.382,108.05C46.335,113.079 44.61,118.272 43.233,123.602L68.794,122.18C68.851,122.176 68.909,122.173 68.968,122.171L126.827,118.951C128.108,118.88 129.361,119.339 130.293,120.22C131.225,121.102 131.753,122.328 131.753,123.611L131.753,273.902C136.853,275.221 142.081,276.221 147.414,276.879L158.033,193.321C158.329,190.99 160.313,189.242 162.663,189.242C165.012,189.242 166.996,190.99 167.292,193.321L177.911,276.879C183.244,276.221 188.473,275.221 193.572,273.902L193.572,123.611C193.572,122.328 194.1,121.102 195.032,120.22C195.964,119.339 197.218,118.88 198.498,118.951L256.358,122.171C256.416,122.173 256.474,122.176 256.532,122.18L282.092,123.602C280.716,118.272 278.992,113.081 276.943,108.05L227.175,98.533C226.498,98.553 225.817,98.426 225.184,98.152L187.658,90.977C186.724,91.081 185.77,90.903 184.931,90.455L162.663,86.197L140.394,90.455ZM219.12,264.144C213.919,266.829 208.503,269.155 202.906,271.089L202.906,249.498L219.12,264.144ZM122.419,271.089C116.82,269.154 111.406,266.829 106.205,264.144L122.419,249.498L122.419,271.089ZM97.657,259.288C92.119,255.845 86.871,251.972 81.963,247.719L98.398,227.427L98.42,227.399L98.449,227.363L122.419,197.766L122.419,236.921L97.657,259.288ZM226.876,227.363L226.905,227.399L226.928,227.427L243.362,247.719C238.452,251.972 233.207,255.844 227.669,259.288L202.906,236.921L202.906,197.766L226.876,227.363ZM63.011,131.85L41.186,133.064C39.966,140.021 39.329,147.177 39.329,154.481C39.329,188.339 53.002,219.029 75.127,241.33L88.537,224.772C71.158,206.453 60.49,181.703 60.49,154.481C60.49,146.705 61.361,139.131 63.011,131.85ZM262.315,131.85C263.964,139.131 264.835,146.705 264.835,154.481C264.835,181.703 254.167,206.453 236.788,224.772L250.198,241.33C272.323,219.029 285.996,188.339 285.996,154.481C285.996,147.177 285.36,140.021 284.14,133.064L262.315,131.85ZM72.743,131.308C70.837,138.716 69.823,146.481 69.823,154.481C69.823,178.772 79.173,200.897 94.467,217.45L122.419,182.936L122.419,128.544L72.743,131.308ZM202.906,182.936L230.858,217.45C246.152,200.897 255.502,178.772 255.502,154.481C255.502,146.481 254.488,138.716 252.582,131.308L202.906,128.544L202.906,182.936ZM70.922,72.085L88.878,90.804L53.207,97.625C58.032,88.363 64,79.787 70.922,72.085ZM254.403,72.085C261.323,79.784 267.291,88.36 272.118,97.625L236.447,90.804L254.403,72.085ZM91.174,53.995L127.282,83.46L99.807,88.714L77.422,65.379C81.721,61.265 86.317,57.459 91.174,53.995ZM234.151,53.995C239.007,57.457 243.604,61.264 247.903,65.379L225.518,88.714L198.044,83.46L234.151,53.995ZM137.732,33.674C123.966,36.505 111.035,41.632 99.363,48.632L139.242,81.173L144.14,80.237C135.899,74.413 130.514,64.812 130.514,53.964C130.514,46.274 133.219,39.211 137.732,33.674ZM187.594,33.674C192.106,39.211 194.812,46.274 194.812,53.964C194.812,64.812 189.427,74.413 181.185,80.237L186.084,81.173L225.962,48.632C214.287,41.629 201.357,36.503 187.594,33.674ZM162.663,31.148C175.255,31.148 185.478,41.371 185.478,53.964C185.478,66.556 175.255,76.779 162.663,76.779C150.07,76.779 139.847,66.556 139.847,53.964C139.847,41.371 150.07,31.148 162.663,31.148Z" style="fill:rgb(244,219,125);fill-opacity:0.25;"/>
    </g>
</svg>
